<svg width="14" height="14" viewBox="0 0 14 14" fill="none" xmlns="http://www.w3.org/2000/svg">
<path d="M12.2254 3.50001H5.97461L13.527 1.28598C13.8748 1.18388 14.0492 0.819499 13.9721 0.471686C13.8704 0.12442 13.5319 -0.0505797 13.1578 0.0265297L1.41504 3.46993C0.620156 3.70268 0.0601563 4.42149 0.00984375 5.24126L0 5.25001V12.2254C0 13.1909 0.784492 13.9508 1.72539 13.9508H12.2008C13.1663 13.9508 13.9262 13.1663 13.9262 12.2254V5.25001C13.9754 4.28478 13.2152 3.50001 12.2254 3.50001V3.50001ZM2.1875 6.78126C2.1875 6.66079 2.28577 6.58712 2.38164 6.58712H5.41953C5.54001 6.58712 5.61367 6.6854 5.61367 6.78126V7.19415C5.61367 7.31463 5.5154 7.3883 5.41953 7.3883H2.38164C2.26116 7.3883 2.1875 7.29002 2.1875 7.19415V6.78126ZM5.6875 10.6942C5.6875 10.8146 5.58923 10.8883 5.49336 10.8883H2.45547C2.33499 10.8883 2.26133 10.79 2.26133 10.6942V10.2813C2.26133 10.1608 2.3596 10.0871 2.45547 10.0871H5.49336C5.61384 10.0871 5.6875 10.1854 5.6875 10.2813V10.6942V10.6942ZM6.125 8.94416C6.125 9.06463 6.02673 9.1383 5.93086 9.1383H1.96875C1.84827 9.1383 1.77461 9.04002 1.77461 8.94416V8.50666C1.77461 8.38618 1.87288 8.31252 1.96875 8.31252H5.88164C6.00212 8.31252 6.07578 8.41079 6.07578 8.50666V8.94416H6.125ZM10.0379 10.9129C8.83039 10.9129 7.85039 9.93291 7.85039 8.75002C7.85039 7.56712 8.83039 6.56251 10.0379 6.56251C11.2454 6.56251 12.2008 7.54279 12.2008 8.75002C12.2008 9.95724 11.2711 10.9129 10.0379 10.9129Z" fill="#888888"/>
</svg>
